<svg width="103" height="47" viewBox="0 0 103 47" fill="none" xmlns="http://www.w3.org/2000/svg">
<path d="M1.51705 26V8.54545H8.40341C9.72727 8.54545 10.8551 8.7983 11.7869 9.30398C12.7188 9.80398 13.429 10.5 13.9176 11.392C14.4119 12.2784 14.6591 13.3011 14.6591 14.4602C14.6591 15.6193 14.4091 16.642 13.9091 17.5284C13.4091 18.4148 12.6847 19.1051 11.7358 19.5994C10.7926 20.0937 9.65057 20.3409 8.30966 20.3409H3.92045V17.3835H7.71307C8.4233 17.3835 9.00852 17.2614 9.46875 17.017C9.93466 16.767 10.2813 16.4233 10.5085 15.9858C10.7415 15.5426 10.858 15.0341 10.858 14.4602C10.858 13.8807 10.7415 13.375 10.5085 12.9432C10.2813 12.5057 9.93466 12.1676 9.46875 11.929C9.00284 11.6847 8.41193 11.5625 7.69602 11.5625H5.20739V26H1.51705ZM20.6186 8.54545V26H16.9879V8.54545H20.6186ZM27.2599 26.2472C26.4247 26.2472 25.6804 26.1023 25.027 25.8125C24.3736 25.517 23.8565 25.0824 23.4759 24.5085C23.1009 23.929 22.9134 23.2074 22.9134 22.3438C22.9134 21.6165 23.0469 21.0057 23.3139 20.5114C23.581 20.017 23.9446 19.6193 24.4048 19.3182C24.8651 19.017 25.3878 18.7898 25.973 18.6364C26.5639 18.483 27.1832 18.375 27.831 18.3125C28.5923 18.233 29.206 18.1591 29.6719 18.0909C30.1378 18.017 30.4759 17.9091 30.6861 17.767C30.8963 17.625 31.0014 17.4148 31.0014 17.1364V17.0852C31.0014 16.5455 30.831 16.1278 30.4901 15.8324C30.1548 15.5369 29.6776 15.3892 29.0582 15.3892C28.4048 15.3892 27.8849 15.5341 27.4986 15.8239C27.1122 16.108 26.8565 16.4659 26.7315 16.8977L23.3736 16.625C23.544 15.8295 23.8793 15.142 24.3793 14.5625C24.8793 13.9773 25.5241 13.5284 26.3139 13.2159C27.1094 12.8977 28.0298 12.7386 29.0753 12.7386C29.8026 12.7386 30.4986 12.8239 31.1634 12.9943C31.8338 13.1648 32.4276 13.429 32.9446 13.7869C33.4673 14.1449 33.8793 14.6051 34.1804 15.1676C34.4815 15.7244 34.6321 16.392 34.6321 17.1705V26H31.1889V24.1847H31.0866C30.8764 24.5938 30.5952 24.9545 30.2429 25.267C29.8906 25.5739 29.4673 25.8153 28.973 25.9915C28.4787 26.1619 27.9077 26.2472 27.2599 26.2472ZM28.2997 23.7415C28.8338 23.7415 29.3054 23.6364 29.7145 23.4261C30.1236 23.2102 30.4446 22.9205 30.6776 22.5568C30.9105 22.1932 31.027 21.7812 31.027 21.321V19.9318C30.9134 20.0057 30.7571 20.0739 30.5582 20.1364C30.3651 20.1932 30.1463 20.2472 29.902 20.2983C29.6577 20.3437 29.4134 20.3864 29.169 20.4261C28.9247 20.4602 28.7031 20.4915 28.5043 20.5199C28.0781 20.5824 27.706 20.6818 27.3878 20.8182C27.0696 20.9545 26.8224 21.1392 26.6463 21.3722C26.4702 21.5994 26.3821 21.8835 26.3821 22.2244C26.3821 22.7188 26.5611 23.0966 26.919 23.358C27.2827 23.6136 27.7429 23.7415 28.2997 23.7415ZM41.0795 18.4318V26H37.4489V12.9091H40.9091V15.2188H41.0625C41.3523 14.4574 41.8381 13.8551 42.5199 13.4119C43.2017 12.9631 44.0284 12.7386 45 12.7386C45.9091 12.7386 46.7017 12.9375 47.3778 13.3352C48.054 13.733 48.5795 14.3011 48.9545 15.0398C49.3295 15.7727 49.517 16.6477 49.517 17.6648V26H45.8864V18.3125C45.892 17.5114 45.6875 16.8864 45.2727 16.4375C44.858 15.983 44.2869 15.7557 43.5597 15.7557C43.071 15.7557 42.6392 15.8608 42.2642 16.071C41.8949 16.2812 41.6051 16.5881 41.3949 16.9915C41.1903 17.3892 41.0852 17.8693 41.0795 18.4318Z" fill="#706E6F"/>
<path d="M54.1259 9.50368L59.8725 19.2158H60.0951L65.8695 9.50368H72.6736L63.9772 23.7518L72.8684 38H65.9391L60.0951 28.274H59.8725L54.0285 38H47.1271L56.0461 23.7518L47.294 9.50368H54.1259ZM86.5878 38H76.486V9.50368H86.6713C89.5376 9.50368 92.005 10.0742 94.0736 11.2151C96.1422 12.3468 97.7331 13.9748 98.8462 16.099C99.9686 18.2233 100.53 20.7649 100.53 23.724C100.53 26.6924 99.9686 29.2433 98.8462 31.3768C97.7331 33.5103 96.1329 35.1476 94.0458 36.2886C91.9679 37.4295 89.4819 38 86.5878 38ZM82.5109 32.8378H86.3373C88.1183 32.8378 89.6164 32.5224 90.8316 31.8917C92.0561 31.2516 92.9744 30.2637 93.5866 28.9279C94.2081 27.5829 94.5189 25.8483 94.5189 23.724C94.5189 21.6183 94.2081 19.8976 93.5866 18.5618C92.9744 17.2261 92.0607 16.2428 90.8455 15.612C89.6303 14.9812 88.1322 14.6659 86.3512 14.6659H82.5109V32.8378Z" fill="#E82B2B"/>
</svg>
