<svg width="36" height="36" viewBox="0 0 36 36" fill="none" xmlns="http://www.w3.org/2000/svg">
<rect width="36" height="36" rx="18" fill="#EBEBEB"/>
<g clip-path="url(#clip0_41_13)">
<path d="M25.14 18.94C25.18 18.64 25.2 18.33 25.2 18C25.2 17.68 25.18 17.36 25.13 17.06L27.16 15.48C27.34 15.34 27.39 15.07 27.28 14.87L25.36 11.55C25.24 11.33 24.99 11.26 24.77 11.33L22.38 12.29C21.88 11.91 21.35 11.59 20.76 11.35L20.4 8.81C20.36 8.57 20.16 8.4 19.92 8.4H16.08C15.84 8.4 15.65 8.57 15.61 8.81L15.25 11.35C14.66 11.59 14.12 11.92 13.63 12.29L11.24 11.33C11.02 11.25 10.77 11.33 10.65 11.55L8.73999 14.87C8.61999 15.08 8.65999 15.34 8.85999 15.48L10.89 17.06C10.84 17.36 10.8 17.69 10.8 18C10.8 18.31 10.82 18.64 10.87 18.94L8.83999 20.52C8.65999 20.66 8.60999 20.93 8.71999 21.13L10.64 24.45C10.76 24.67 11.01 24.74 11.23 24.67L13.62 23.71C14.12 24.09 14.65 24.41 15.24 24.65L15.6 27.19C15.65 27.43 15.84 27.6 16.08 27.6H19.92C20.16 27.6 20.36 27.43 20.39 27.19L20.75 24.65C21.34 24.41 21.88 24.09 22.37 23.71L24.76 24.67C24.98 24.75 25.23 24.67 25.35 24.45L27.27 21.13C27.39 20.91 27.34 20.66 27.15 20.52L25.14 18.94ZM18 21.6C16.02 21.6 14.4 19.98 14.4 18C14.4 16.02 16.02 14.4 18 14.4C19.98 14.4 21.6 16.02 21.6 18C21.6 19.98 19.98 21.6 18 21.6Z" fill="#706E6F"/>
</g>
<defs>
<clipPath id="clip0_41_13">
<rect width="24" height="24" fill="white" transform="translate(6 6)"/>
</clipPath>
</defs>
</svg>
